<svg xmlns="http://www.w3.org/2000/svg" viewBox="0 0 490 262" width="490" height="262" role="img" aria-label="S.A.G.E: Surya's Advanced General Entity" font-family="'JetBrains Mono','Fira Code','Cascadia Code','SF Mono',Menlo,Consolas,'Liberation Mono','DejaVu Sans Mono',monospace">
<title>S.A.G.E: Surya's Advanced General Entity</title>
<defs><pattern id="cf" width="8" height="8" patternUnits="userSpaceOnUse">
<rect width="8" height="8" fill="#0F1012"/><rect width="4" height="4" fill="#16181B"/><rect x="4" y="4" width="4" height="4" fill="#16181B"/>
<rect x="4" width="4" height="4" fill="#0B0C0E"/><rect y="4" width="4" height="4" fill="#0B0C0E"/></pattern><linearGradient id="sw" x1="0" x2="1"><stop offset="0" stop-color="#fff" stop-opacity="0"/><stop offset=".9" stop-color="#fff" stop-opacity=".95"/><stop offset="1" stop-color="#fff" stop-opacity="0"/></linearGradient>
<clipPath id="cr"><rect width="490" height="262" rx="14"/></clipPath>
<linearGradient id="top" x1="0" x2="1"><stop offset="0" stop-color="#B138DD"/><stop offset="1" stop-color="#B138DD" stop-opacity="0"/></linearGradient><linearGradient id="eq" gradientUnits="userSpaceOnUse" x1="24" x2="466"><stop offset="0" stop-color="#B138DD"/><stop offset="1" stop-color="#E10600"/></linearGradient></defs>
<g clip-path="url(#cr)"><rect width="490" height="262" fill="#0A0B0D"/><rect width="490" height="262" fill="url(#cf)" opacity=".55"/><rect width="490" height="4" fill="url(#top)"/></g><rect x=".5" y=".5" width="489" height="261" rx="14" fill="none" stroke="#2A2C31"/>
<text x="24" y="52" font-size="26" font-weight="800" fill="#E6E7EA">S.A.G.E</text>
<circle cx="342.8" cy="45" r="4" fill="#B138DD"/>
<text x="356.8 364.6 380.2 388 395.8 403.6 411.4 419.2 427 434.8 442.6 450.4 458.2" y="50" font-size="13" fill="#8B8F97" >indevelopment</text>
<text x="24" y="80" font-size="14" fill="#8B8F97">Surya's Advanced General Entity</text>
<text x="24" y="110" font-size="14" fill="#B138DD" >+</text>
<text x="40.8 49.2 57.6 66 74.4 82.8 91.2 99.6 108 116.4 124.8 133.2 150 158.4 166.8 175.2 183.6 192 208.8 217.2 225.6 234 242.4 250.8 267.6 276 284.4 301.2 309.6 318 326.4 334.8 343.2 351.6 368.4 376.8 385.2 393.6 402 410.4 418.8" y="110" font-size="14" fill="#E6E7EA" >JARVIS-stylevoice,visionandgesturecontrol</text>
<text x="24" y="132" font-size="14" fill="#B138DD" >+</text>
<text x="40.8 49.2 57.6 66 74.4 82.8 99.6 108 116.4 124.8 133.2 141.6 150 158.4 166.8 183.6 192 200.4 208.8 217.2 234 242.4 250.8 267.6 276 284.4 301.2 309.6 326.4 334.8 343.2 351.6 360 368.4 376.8" y="132" font-size="14" fill="#E6E7EA" >email,calendar,filesandGitbycommand</text>
<text x="24" y="154" font-size="14" fill="#B138DD" >+</text>
<text x="40.8 49.2 57.6 66 74.4 82.8 91.2 99.6 116.4 124.8 133.2 150 158.4 166.8 183.6 192 200.4 208.8 225.6 234 242.4 250.8 259.2 267.6 276 284.4 301.2 309.6 318 326.4 343.2 351.6 360 368.4 376.8 385.2 393.6 402" y="154" font-size="14" fill="#E6E7EA" >proposesitsowncodechanges,withrollback</text>
<line x1="24" y1="194" x2="466" y2="194" stroke="#2A2C31"/>
<rect x="26.32" y="190.66" width="6.41" height="6.68" rx="2" fill="url(#eq)"><animate attributeName="height" values="6.68;15.98;9.76;7.31;19.72;6.68" dur="1.4s" repeatCount="indefinite"/><animate attributeName="y" values="190.66;186.01;189.12;190.35;184.14;190.66" dur="1.4s" repeatCount="indefinite"/></rect>
<rect x="37.37" y="185.37" width="6.41" height="17.27" rx="2" fill="url(#eq)"><animate attributeName="height" values="17.27;15.27;20.18;21.66;16.36;17.27" dur="2.02s" repeatCount="indefinite"/><animate attributeName="y" values="185.37;186.36;183.91;183.17;185.82;185.37" dur="2.02s" repeatCount="indefinite"/></rect>
<rect x="48.42" y="183.38" width="6.41" height="21.23" rx="2" fill="url(#eq)"><animate attributeName="height" values="21.23;23.12;11.19;14.68;12.07;21.23" dur="1.12s" repeatCount="indefinite"/><animate attributeName="y" values="183.38;182.44;188.41;186.66;187.96;183.38" dur="1.12s" repeatCount="indefinite"/></rect>
<rect x="59.47" y="182.23" width="6.41" height="23.53" rx="2" fill="url(#eq)"><animate attributeName="height" values="23.53;26.92;11.5;13.02;4.73;23.53" dur="2.2s" repeatCount="indefinite"/><animate attributeName="y" values="182.23;180.54;188.25;187.49;191.63;182.23" dur="2.2s" repeatCount="indefinite"/></rect>
<rect x="70.52" y="181.64" width="6.41" height="24.72" rx="2" fill="url(#eq)"><animate attributeName="height" values="24.72;21.99;18.06;13.22;7.54;24.72" dur="2.29s" repeatCount="indefinite"/><animate attributeName="y" values="181.64;183;184.97;187.39;190.23;181.64" dur="2.29s" repeatCount="indefinite"/></rect>
<rect x="81.57" y="190.6" width="6.41" height="6.81" rx="2" fill="url(#eq)"><animate attributeName="height" values="6.81;12.98;32.04;6.49;14.54;6.81" dur="2.29s" repeatCount="indefinite"/><animate attributeName="y" values="190.6;187.51;177.98;190.76;186.73;190.6" dur="2.29s" repeatCount="indefinite"/></rect>
<rect x="92.62" y="180.92" width="6.41" height="26.16" rx="2" fill="url(#eq)"><animate attributeName="height" values="26.16;11.5;10.26;30.84;27.37;26.16" dur="1.23s" repeatCount="indefinite"/><animate attributeName="y" values="180.92;188.25;188.87;178.58;180.32;180.92" dur="1.23s" repeatCount="indefinite"/></rect>
<rect x="103.67" y="178.22" width="6.41" height="31.56" rx="2" fill="url(#eq)"><animate attributeName="height" values="31.56;21.03;35.28;36.09;25.73;31.56" dur="1.97s" repeatCount="indefinite"/><animate attributeName="y" values="178.22;183.49;176.36;175.96;181.13;178.22" dur="1.97s" repeatCount="indefinite"/></rect>
<rect x="114.72" y="190.45" width="6.41" height="7.09" rx="2" fill="url(#eq)"><animate attributeName="height" values="7.09;6.23;34.95;7.27;14.12;7.09" dur="1.6s" repeatCount="indefinite"/><animate attributeName="y" values="190.45;190.89;176.53;190.37;186.94;190.45" dur="1.6s" repeatCount="indefinite"/></rect>
<rect x="125.77" y="190.66" width="6.41" height="6.68" rx="2" fill="url(#eq)"><animate attributeName="height" values="6.68;33.02;38.16;14.98;33.28;6.68" dur="1.95s" repeatCount="indefinite"/><animate attributeName="y" values="190.66;177.49;174.92;186.51;177.36;190.66" dur="1.95s" repeatCount="indefinite"/></rect>
<rect x="136.82" y="175.96" width="6.41" height="36.08" rx="2" fill="url(#eq)"><animate attributeName="height" values="36.08;4;25.82;10.22;23.54;36.08" dur="1.66s" repeatCount="indefinite"/><animate attributeName="y" values="175.96;192;181.09;188.89;182.23;175.96" dur="1.66s" repeatCount="indefinite"/></rect>
<rect x="147.87" y="190.61" width="6.41" height="6.78" rx="2" fill="url(#eq)"><animate attributeName="height" values="6.78;5.83;17.57;21.62;4.55;6.78" dur="1.91s" repeatCount="indefinite"/><animate attributeName="y" values="190.61;191.08;185.21;183.19;191.73;190.61" dur="1.91s" repeatCount="indefinite"/></rect>
<rect x="158.92" y="175.14" width="6.41" height="37.72" rx="2" fill="url(#eq)"><animate attributeName="height" values="37.72;24.23;6.53;10.15;34.66;37.72" dur="1.97s" repeatCount="indefinite"/><animate attributeName="y" values="175.14;181.89;190.74;188.92;176.67;175.14" dur="1.97s" repeatCount="indefinite"/></rect>
<rect x="169.97" y="186.78" width="6.41" height="14.44" rx="2" fill="url(#eq)"><animate attributeName="height" values="14.44;9.45;15.82;28.7;13.83;14.44" dur="1.11s" repeatCount="indefinite"/><animate attributeName="y" values="186.78;189.27;186.09;179.65;187.08;186.78" dur="1.11s" repeatCount="indefinite"/></rect>
<rect x="181.02" y="175.67" width="6.41" height="36.65" rx="2" fill="url(#eq)"><animate attributeName="height" values="36.65;22.67;24.71;29.73;20.26;36.65" dur="1.92s" repeatCount="indefinite"/><animate attributeName="y" values="175.67;182.67;181.64;179.14;183.87;175.67" dur="1.92s" repeatCount="indefinite"/></rect>
<rect x="192.07" y="183.08" width="6.41" height="21.84" rx="2" fill="url(#eq)"><animate attributeName="height" values="21.84;36.93;41.29;20.56;22.2;21.84" dur="1.02s" repeatCount="indefinite"/><animate attributeName="y" values="183.08;175.53;173.35;183.72;182.9;183.08" dur="1.02s" repeatCount="indefinite"/></rect>
<rect x="203.12" y="187.73" width="6.41" height="12.55" rx="2" fill="url(#eq)"><animate attributeName="height" values="12.55;42.07;36.77;42.71;44.33;12.55" dur="1.08s" repeatCount="indefinite"/><animate attributeName="y" values="187.73;172.96;175.62;172.64;171.84;187.73" dur="1.08s" repeatCount="indefinite"/></rect>
<rect x="214.17" y="187.86" width="6.41" height="12.27" rx="2" fill="url(#eq)"><animate attributeName="height" values="12.27;28.67;7.52;40.89;6.54;12.27" dur="2.26s" repeatCount="indefinite"/><animate attributeName="y" values="187.86;179.66;190.24;173.55;190.73;187.86" dur="2.26s" repeatCount="indefinite"/></rect>
<rect x="225.22" y="185.3" width="6.41" height="17.4" rx="2" fill="url(#eq)"><animate attributeName="height" values="17.4;39.77;7.25;18.49;41.91;17.4" dur="1.7s" repeatCount="indefinite"/><animate attributeName="y" values="185.3;174.12;190.37;184.76;173.04;185.3" dur="1.7s" repeatCount="indefinite"/></rect>
<rect x="236.27" y="188.98" width="6.41" height="10.04" rx="2" fill="url(#eq)"><animate attributeName="height" values="10.04;31.69;43.5;15.06;17.55;10.04" dur="1.94s" repeatCount="indefinite"/><animate attributeName="y" values="188.98;178.15;172.25;186.47;185.22;188.98" dur="1.94s" repeatCount="indefinite"/></rect>
<rect x="247.32" y="191.3" width="6.41" height="5.39" rx="2" fill="url(#eq)"><animate attributeName="height" values="5.39;25.55;37.86;24.31;24.81;5.39" dur="1.56s" repeatCount="indefinite"/><animate attributeName="y" values="191.3;181.22;175.07;181.85;181.6;191.3" dur="1.56s" repeatCount="indefinite"/></rect>
<rect x="258.37" y="179.43" width="6.41" height="29.14" rx="2" fill="url(#eq)"><animate attributeName="height" values="29.14;42.71;12.41;28;37.58;29.14" dur="1.07s" repeatCount="indefinite"/><animate attributeName="y" values="179.43;172.65;187.8;180;175.21;179.43" dur="1.07s" repeatCount="indefinite"/></rect>
<rect x="269.42" y="185.98" width="6.41" height="16.05" rx="2" fill="url(#eq)"><animate attributeName="height" values="16.05;25.28;12.87;42.47;22.72;16.05" dur="1.04s" repeatCount="indefinite"/><animate attributeName="y" values="185.98;181.36;187.57;172.77;182.64;185.98" dur="1.04s" repeatCount="indefinite"/></rect>
<rect x="280.47" y="170.75" width="6.41" height="46.5" rx="2" fill="url(#eq)"><animate attributeName="height" values="46.5;26.84;46.76;41.49;10.19;46.5" dur="1.85s" repeatCount="indefinite"/><animate attributeName="y" values="170.75;180.58;170.62;173.25;188.9;170.75" dur="1.85s" repeatCount="indefinite"/></rect>
<rect x="291.52" y="182.61" width="6.41" height="22.79" rx="2" fill="url(#eq)"><animate attributeName="height" values="22.79;23.85;20.33;13.38;37.82;22.79" dur="1.69s" repeatCount="indefinite"/><animate attributeName="y" values="182.61;182.08;183.84;187.31;175.09;182.61" dur="1.69s" repeatCount="indefinite"/></rect>
<rect x="302.57" y="173.16" width="6.41" height="41.67" rx="2" fill="url(#eq)"><animate attributeName="height" values="41.67;23.12;13.19;43.66;17.23;41.67" dur="1.55s" repeatCount="indefinite"/><animate attributeName="y" values="173.16;182.44;187.41;172.17;185.38;173.16" dur="1.55s" repeatCount="indefinite"/></rect>
<rect x="313.62" y="189.28" width="6.41" height="9.43" rx="2" fill="url(#eq)"><animate attributeName="height" values="9.43;24.69;44.98;26.57;17.76;9.43" dur="2.22s" repeatCount="indefinite"/><animate attributeName="y" values="189.28;181.65;171.51;180.72;185.12;189.28" dur="2.22s" repeatCount="indefinite"/></rect>
<rect x="324.67" y="183.76" width="6.41" height="20.48" rx="2" fill="url(#eq)"><animate attributeName="height" values="20.48;13.08;7.78;26.01;40.46;20.48" dur="1.12s" repeatCount="indefinite"/><animate attributeName="y" values="183.76;187.46;190.11;180.99;173.77;183.76" dur="1.12s" repeatCount="indefinite"/></rect>
<rect x="335.72" y="188.18" width="6.41" height="11.64" rx="2" fill="url(#eq)"><animate attributeName="height" values="11.64;31.22;38.93;27.8;37.03;11.64" dur="2.09s" repeatCount="indefinite"/><animate attributeName="y" values="188.18;178.39;174.53;180.1;175.49;188.18" dur="2.09s" repeatCount="indefinite"/></rect>
<rect x="346.77" y="186.99" width="6.41" height="14.02" rx="2" fill="url(#eq)"><animate attributeName="height" values="14.02;40.96;29.04;32.19;36.11;14.02" dur="2.09s" repeatCount="indefinite"/><animate attributeName="y" values="186.99;173.52;179.48;177.91;175.95;186.99" dur="2.09s" repeatCount="indefinite"/></rect>
<rect x="357.82" y="183.34" width="6.41" height="21.33" rx="2" fill="url(#eq)"><animate attributeName="height" values="21.33;16.07;16.81;11.57;26.07;21.33" dur="1.92s" repeatCount="indefinite"/><animate attributeName="y" values="183.34;185.97;185.6;188.21;180.96;183.34" dur="1.92s" repeatCount="indefinite"/></rect>
<rect x="368.87" y="190.5" width="6.41" height="7" rx="2" fill="url(#eq)"><animate attributeName="height" values="7;39.07;33.43;34.23;32.17;7" dur="2.04s" repeatCount="indefinite"/><animate attributeName="y" values="190.5;174.47;177.29;176.89;177.92;190.5" dur="2.04s" repeatCount="indefinite"/></rect>
<rect x="379.92" y="181.82" width="6.41" height="24.36" rx="2" fill="url(#eq)"><animate attributeName="height" values="24.36;5.19;8.08;7.74;6.91;24.36" dur="2.24s" repeatCount="indefinite"/><animate attributeName="y" values="181.82;191.41;189.96;190.13;190.54;181.82" dur="2.24s" repeatCount="indefinite"/></rect>
<rect x="390.97" y="189.81" width="6.41" height="8.39" rx="2" fill="url(#eq)"><animate attributeName="height" values="8.39;8.09;22.49;13.1;34.14;8.39" dur="1.19s" repeatCount="indefinite"/><animate attributeName="y" values="189.81;189.95;182.76;187.45;176.93;189.81" dur="1.19s" repeatCount="indefinite"/></rect>
<rect x="402.02" y="184.39" width="6.41" height="19.22" rx="2" fill="url(#eq)"><animate attributeName="height" values="19.22;15.03;28.95;28.94;5.72;19.22" dur="1.38s" repeatCount="indefinite"/><animate attributeName="y" values="184.39;186.48;179.53;179.53;191.14;184.39" dur="1.38s" repeatCount="indefinite"/></rect>
<rect x="413.07" y="181.71" width="6.41" height="24.59" rx="2" fill="url(#eq)"><animate attributeName="height" values="24.59;22.28;25.41;17.38;31.33;24.59" dur="1.82s" repeatCount="indefinite"/><animate attributeName="y" values="181.71;182.86;181.29;185.31;178.33;181.71" dur="1.82s" repeatCount="indefinite"/></rect>
<rect x="424.12" y="187.45" width="6.41" height="13.09" rx="2" fill="url(#eq)"><animate attributeName="height" values="13.09;16.01;8.03;8.46;10.46;13.09" dur="1.62s" repeatCount="indefinite"/><animate attributeName="y" values="187.45;185.99;189.99;189.77;188.77;187.45" dur="1.62s" repeatCount="indefinite"/></rect>
<rect x="435.17" y="184.57" width="6.41" height="18.85" rx="2" fill="url(#eq)"><animate attributeName="height" values="18.85;9.8;23.89;10.89;5.91;18.85" dur="2.18s" repeatCount="indefinite"/><animate attributeName="y" values="184.57;189.1;182.06;188.56;191.04;184.57" dur="2.18s" repeatCount="indefinite"/></rect>
<rect x="446.22" y="186.8" width="6.41" height="14.4" rx="2" fill="url(#eq)"><animate attributeName="height" values="14.4;10.97;18.44;22.56;4.8;14.4" dur="1.71s" repeatCount="indefinite"/><animate attributeName="y" values="186.8;188.51;184.78;182.72;191.6;186.8" dur="1.71s" repeatCount="indefinite"/></rect>
<rect x="457.27" y="186.74" width="6.41" height="14.51" rx="2" fill="url(#eq)"><animate attributeName="height" values="14.51;4.93;16.3;15.33;5.56;14.51" dur="1.5s" repeatCount="indefinite"/><animate attributeName="y" values="186.74;191.54;185.85;186.34;191.22;186.74" dur="1.5s" repeatCount="indefinite"/></rect>
<rect x="24" y="230" width="61.2" height="22" rx="6" fill="#15161A" stroke="#34373D"/>
<text x="33 40.2 47.4 54.6 61.8 69" y="245.2" font-size="12" fill="#E6E7EA" >gradio</text>
<rect x="93.2" y="230" width="68.4" height="22" rx="6" fill="#15161A" stroke="#34373D"/>
<text x="102.2 109.4 116.6 123.8 131 138.2 145.4" y="245.2" font-size="12" fill="#E6E7EA" >fastapi</text>
<rect x="169.6" y="230" width="54" height="22" rx="6" fill="#15161A" stroke="#34373D"/>
<text x="178.6 185.8 193 200.2 207.4" y="245.2" font-size="12" fill="#E6E7EA" >react</text>
<rect x="231.6" y="230" width="54" height="22" rx="6" fill="#15161A" stroke="#34373D"/>
<text x="240.6 247.8 255 262.2 269.4" y="245.2" font-size="12" fill="#E6E7EA" >tauri</text>
<rect x="293.6" y="230" width="61.2" height="22" rx="6" fill="#15161A" stroke="#34373D"/>
<text x="302.6 309.8 317 324.2 331.4 338.6" y="245.2" font-size="12" fill="#E6E7EA" >python</text>
</svg>
